<svg xmlns="http://www.w3.org/2000/svg" xml:space="preserve" style="fill-rule:evenodd;clip-rule:evenodd"
    viewBox="0 0 484 484">
    <path d="M0 0h483.721v483.721H0z" />
    <path
        d="M103.56 87.787c3.867 0 6.767-.767 8.7-2.3 1.934-1.533 2.9-3.567 2.9-6.1v-.7c0-2.8-.9-5.033-2.7-6.7-1.8-1.667-4.3-2.5-7.5-2.5-3.066 0-5.883.767-8.45 2.3-2.566 1.533-4.716 3.733-6.45 6.6l-9.5-8.8c3-3.933 6.434-6.967 10.3-9.1 3.867-2.133 8.734-3.2 14.6-3.2 5.067 0 9.534.8 13.4 2.4 3.867 1.6 6.85 3.867 8.95 6.8 2.1 2.933 3.15 6.333 3.15 10.2 0 4.467-1.316 8.15-3.95 11.05-2.633 2.9-5.95 4.75-9.95 5.55v.5c4.534.867 8.2 2.817 11 5.85 2.8 3.033 4.2 6.983 4.2 11.85 0 4.333-1.15 8.133-3.45 11.4-2.3 3.267-5.533 5.8-9.7 7.6-4.166 1.8-8.95 2.7-14.35 2.7-6.733 0-12.183-1.25-16.35-3.75-4.166-2.5-7.616-5.883-10.35-10.15l11-8.6c1.8 3.333 3.934 5.883 6.4 7.65 2.467 1.767 5.567 2.65 9.3 2.65 3.734 0 6.634-.933 8.7-2.8 2.067-1.867 3.1-4.4 3.1-7.6v-.8c0-3.067-1.133-5.417-3.4-7.05-2.266-1.633-5.5-2.45-9.7-2.45h-6.9v-12.5h7ZM147.16 131.887v-73.3h27.2c9.867 0 17.667 3.133 23.4 9.4 5.734 6.267 8.6 15.367 8.6 27.3 0 11.867-2.866 20.933-8.6 27.2-5.733 6.267-13.533 9.4-23.4 9.4h-27.2Zm27.2-13.5c5.067 0 9-1.45 11.8-4.35 2.8-2.9 4.2-7.283 4.2-13.15v-11.3c0-5.867-1.4-10.25-4.2-13.15-2.8-2.9-6.733-4.35-11.8-4.35h-12v46.3h12ZM248.66 81.187h20.2v-5.8h-24.4v-8.8h24.4v-5.6h-20.6v-8.6h20.6v-5h11v5h23.8v14.2h5v8.8h-5v14.4h-23.8v4.8h24.7v9h-24.7v5.2h27v9h-27v6.5h-11v-6.5h-24v-9h24v-5.2h-21.5v-9h21.5v-4.8h-20.2v-8.6Zm60.2 45.8-2.6 11.2h-42.5c-12.666 0-23-3.533-31-10.6-3.133 4.867-6.766 9-10.9 12.4l-7.4-9.3c4.267-3.2 7.867-7.067 10.8-11.6-4-5.733-7.233-12.933-9.7-21.6l9.7-3.3c1.467 4.867 3.267 9.333 5.4 13.4 1.667-4.8 3.034-10.8 4.1-18h-17.6v-9.6c4.134-4.533 8.667-10.5 13.6-17.9h-14.2v-10.3h27v9c-3.4 5.267-7.966 11.667-13.7 19.2h15.6v7.1c-1.333 11.6-3.8 21.7-7.4 30.3 3.334 3.2 7.317 5.6 11.95 7.2 4.634 1.6 10.117 2.4 16.45 2.4h42.4Zm-16-66h-13v5.6h13v-5.6Zm-13 20.2h13v-5.8h-13v5.8ZM405.66 58.187v19.4c0 13.667-.733 26.8-2.2 39.4-.666 5.733-1.55 10.117-2.65 13.15-1.1 3.033-2.8 5.233-5.1 6.6s-5.55 2.05-9.75 2.05h-10l-3.3-11.3h11.8c1.934 0 3.4-.267 4.4-.8 1-.533 1.75-1.517 2.25-2.95.5-1.433.95-3.65 1.35-6.65 1.534-12 2.3-24.667 2.3-38-1.933 11.067-5.566 21.333-10.9 30.8-5.333 9.467-12.966 19.1-22.9 28.9l-8.1-9.6c10.067-9.267 17.7-18.65 22.9-28.15 5.2-9.5 8.9-20.183 11.1-32.05h-4.4c-4.066 17.8-12.566 33.733-25.5 47.8l-8-9.2 1.2-1.2c-.933.333-3.066 1.067-6.4 2.2v31.3h-11.1v-27.8c-4.333 1.333-9.533 2.7-15.6 4.1l-2.1-12.5c6.534-1.333 12.434-2.667 17.7-4v-20.8h-5.7c-.933 7.733-2.166 13.967-3.7 18.7l-9.6-6.1c1.467-5 2.567-10.517 3.3-16.55.734-6.033 1.267-12.917 1.6-20.65l10.2 1.4c-.133 3.8-.333 7.633-.6 11.5h4.5v-19.3h11.1v19.3h9.3v5c4.134-7.467 7.067-15.867 8.8-25.2l10.6 1.6c-.466 3-1.133 6.2-2 9.6h35.2Zm-51.8 44c4.467-5.2 8.067-10.5 10.8-15.9 2.734-5.4 4.9-11.167 6.5-17.3h-4.2c-3 7.8-7.1 15.233-12.3 22.3l-8-9.5c.267-.4.584-.833.95-1.3.367-.467.75-1 1.15-1.6h-5v17.6c2.134-.667 5.334-1.733 9.6-3.2l.5 8.9Z"
        style="fill:#fff;fill-rule:nonzero" />
    <clipPath id="a">
        <path d="M103.769 174.003h286.804v286.804H103.769z" />
    </clipPath>
    <g clip-path="url(#a)">
        <path
            d="M380.715 425.405h-12.548V284.691c0-9.858-31.369-35.402-31.369-35.402s-62.739 25.544-62.739 35.402v158.191h-26.888V227.331c0-9.859-40.332-35.403-40.332-35.403s-80.663 25.544-80.663 35.403v198.074h-13.444c-4.93 0-4.482 4.033-4.482 8.962 0 4.93-.448 8.963 4.482 8.963h267.983c6.273 0 5.377-4.033 5.377-8.963 0-4.929.896-8.962-5.377-8.962ZM206.839 191.928v220.033M139.62 244.808l31.369-13.444M139.62 271.248l31.369-13.444M139.62 293.206l31.369-13.444M139.62 315.164l31.369-12.995M139.62 341.604l31.369-12.996M139.62 363.563l31.369-12.996M139.62 390.002l31.369-12.995M139.62 411.961l31.369-12.996M179.951 227.331l13.444-4.482M179.951 253.77l13.444-4.481M179.951 275.729l13.444-4.481M179.951 297.687l13.444-4.481M179.951 324.127l13.444-4.481M179.951 346.086l13.444-4.482M179.951 372.525l13.444-4.481M179.951 394.484l13.444-4.482M336.798 249.289v162.672M287.503 297.687l31.369-13.444M287.503 319.646l31.369-13.444M287.503 341.604l31.369-12.996M287.503 368.044l31.369-13.444M287.503 390.002l31.369-12.995"
            style="fill:none;stroke:#fff;stroke-width:8.96px" />
    </g>
</svg>